<?xml version="1.0" encoding="utf-8"?>
<!-- Generator: Adobe Illustrator 26.3.1, SVG Export Plug-In . SVG Version: 6.00 Build 0)  -->
<svg version="1.1" id="Camada_1" xmlns="http://www.w3.org/2000/svg" xmlns:xlink="http://www.w3.org/1999/xlink" x="0px" y="0px"
	 viewBox="0 0 1080 732.72" style="enable-background:new 0 0 1080 732.72;" xml:space="preserve">
<style type="text/css">
	.st0{fill:#1B4488;}
	.st1{fill:#F2B92C;}
</style>
<g>
	<path class="st0" d="M672.32,373.34c52.53-28.65,86.52-74.31,86.52-125.74c0-86.73-96.66-157.03-215.88-157.03
		c-119.25,0-215.91,70.3-215.91,157.03c0,86.74,96.65,157.06,215.91,157.06c26.1,0,51.13-3.38,74.28-9.56
		c45.66,36.1,119.02,61.15,119.02,61.15C697.98,429.25,679.61,392.04,672.32,373.34z"/>
	<path class="st1" d="M934.39,228.12L556.44,4.75C546-1.66,536-1.48,525.98,4.66l-380.1,223.37c-1,0.58-1.92,1.28-2.81,2.02
		c-0.18,0.15-0.34,0.32-0.51,0.47c-0.52,0.48-1.04,0.95-1.52,1.46c-0.52,0.56-1,1.17-1.46,1.78c-0.11,0.14-0.23,0.28-0.34,0.42
		c-3.05,4.21-4.81,9.53-4.78,15.14c0.03,8.72,4.32,16.72,11.16,20.85l377.95,223.37c10.44,6.4,20.45,6.22,30.46,0.09l101.32-59.54
		c-14.53-7.73-29.3-16.6-42.42-26.37c-22.97,5.59-46.95,8.42-71.4,8.42c-60.38,0-117.29-17.23-160.26-48.48
		c-44.22-32.16-68.56-75.31-68.56-121.51c0-46.18,24.35-89.34,68.56-121.49c42.97-31.25,99.88-48.47,160.26-48.47
		c60.38,0,117.3,17.21,160.27,48.47c44.21,32.15,68.55,75.31,68.55,121.49c0,27.48-8.95,54.75-25.92,78.86
		c-14.05,19.99-33.67,37.93-57.15,52.34c3.85,8.26,9.22,18.1,16.48,28.28l230.38-135.38c1-0.59,1.93-1.28,2.81-2.02
		c0.18-0.15,0.33-0.33,0.51-0.48c0.52-0.47,1.05-0.94,1.53-1.47c0.51-0.54,0.99-1.15,1.45-1.75c0.12-0.15,0.23-0.29,0.35-0.44
		c3.06-4.21,4.81-9.53,4.79-15.14C945.52,240.24,941.24,232.24,934.39,228.12z"/>
	<g>
		<path class="st0" d="M173.46,566.61c7.31,0,23.15,2.68,23.15,12.06v7.4h-8v-4.73c0-5.34-9.21-7.32-14.8-7.32
			c-13,0-22.55,9.55-22.55,23.32c0,14.37,9.82,24.62,23.06,24.62c4.3,0,15.15-1.55,15.15-7.14v-4.74h8v7.4
			c0,8.95-15.23,11.96-23.66,11.96c-18.25,0-31.41-14.03-31.41-31.75C142.4,579.88,155.9,566.61,173.46,566.61z"/>
		<path class="st0" d="M229.66,583.83c12.4,0,18.85,9.13,18.85,20.39c0,1.12-0.27,3.19-0.27,3.19h-31.83
			c0.52,9.64,7.32,14.8,15.06,14.8c7.57,0,12.99-4.9,12.99-4.9l3.45,6.11c0,0-6.54,6.02-16.96,6.02c-13.67,0-23.05-9.89-23.05-22.8
			C207.89,592.78,217.27,583.83,229.66,583.83z M239.9,602.08c-0.26-7.66-4.91-11.61-10.41-11.61c-6.37,0-11.53,4.3-12.73,11.61
			H239.9z"/>
		<path class="st0" d="M258.4,621.96h6.8v-28.75c0-1.29-0.68-1.89-1.89-1.89h-5.34v-6.47h9.82c3.79,0,5.51,1.65,5.51,4.84v2.23
			c0,1.38-0.27,2.5-0.27,2.5h0.17c0.87-2.32,5.95-10.59,16.96-10.59c9.98,0,14.46,5.6,14.46,16.69v21.44h6.88v6.45h-15.23v-25.99
			c0-6.11-1.21-10.92-8.18-10.92c-8.78,0-14.53,8-14.53,16.68v13.78h6.88v6.45H258.4V621.96z"/>
		<path class="st0" d="M323.98,591.33h-7.31v-6.47h7.49V572.9h8.18v11.96h10.4v6.47h-10.4v20.39c0,8.87,6.02,9.98,9.29,9.98
			c1.19,0,1.98-0.08,1.98-0.08v6.97c0,0-1.2,0.18-3.02,0.18c-5.51,0-16.61-1.72-16.61-16.26V591.33z"/>
		<path class="st0" d="M352.56,621.96h6.53v-28.75c0-1.29-0.68-1.89-1.89-1.89h-5.41v-6.47h9.8c3.78,0,5.59,1.55,5.59,5.09v2.76
			c0,1.71-0.18,3.01-0.18,3.01h0.18c1.97-6.37,7.06-11.37,13.76-11.37c1.12,0,2.15,0.18,2.15,0.18v8.26c0,0-1.03-0.25-2.4-0.25
			c-9.29,0-13.26,9.38-13.26,17.89v11.53h6.46v6.45h-21.34V621.96z"/>
		<path class="st0" d="M413.32,583.83c12.99,0,23.5,9.56,23.5,22.71c0,13.27-10.51,22.9-23.5,22.9c-13,0-23.49-9.63-23.49-22.9
			C389.82,593.4,400.32,583.83,413.32,583.83z M413.32,622.21c8.17,0,14.97-6.54,14.97-15.67c0-9.03-6.81-15.47-14.97-15.47
			c-8.26,0-14.98,6.45-14.98,15.47C398.34,615.68,405.05,622.21,413.32,622.21z"/>
		<path class="st0" d="M489.48,583.83c9.9,0,13.42,7.31,13.42,7.31h0.18c0,0-0.26-1.38-0.26-3.28v-13.76h-7.22v-6.45h15.57v52.41
			c0,1.29,0.69,1.9,1.89,1.9h4.4v6.45h-8.7c-3.87,0-5.42-1.89-5.42-4.73v-0.61c0-1.46,0.26-2.32,0.26-2.32h-0.17
			c0,0-3.53,8.69-14.73,8.69c-11.69,0-19.01-9.29-19.01-22.8C469.69,592.78,477.77,583.83,489.48,583.83z M490.52,622.21
			c6.45,0,12.56-4.63,12.56-15.49c0-8-4.05-15.58-12.31-15.58c-6.97,0-12.56,5.6-12.56,15.49
			C478.21,616.11,483.29,622.21,490.52,622.21z"/>
		<path class="st0" d="M547.66,583.83c12.39,0,18.84,9.13,18.84,20.39c0,1.12-0.25,3.19-0.25,3.19h-31.84
			c0.52,9.64,7.32,14.8,15.06,14.8c7.58,0,13-4.9,13-4.9l3.44,6.11c0,0-6.54,6.02-16.96,6.02c-13.67,0-23.05-9.89-23.05-22.8
			C525.89,592.78,535.27,583.83,547.66,583.83z M557.91,602.08c-0.27-7.66-4.91-11.61-10.41-11.61c-6.39,0-11.55,4.3-12.75,11.61
			H557.91z"/>
		<path class="st0" d="M600.5,621.7h7.58v-47.42h-7.58v-6.62h43.98v14.11h-7.5v-7.06h-20.31v19.55h21.52v7.04h-21.52v20.06h21.78
			v-7.32h7.49v14.38H600.5V621.7z"/>
		<path class="st0" d="M655.93,614.39h7.31v2.84c0,3.7,5.16,5.41,9.99,5.41c4.91,0,8.78-1.97,8.78-5.59c0-4.39-4.81-5.76-10.84-7.92
			c-6.45-2.41-13.59-5.34-13.59-13.25c0-8.61,8.52-12.05,16.09-12.05c6.11,0,15.06,2.41,15.06,8.79v5.24h-7.32v-2.84
			c0-2.67-3.44-4.47-7.66-4.47c-4.13,0-7.74,1.72-7.74,5.25c0,4.13,4.81,5.85,10.07,7.66c6.71,2.24,14.37,5.07,14.37,13.17
			c0,8.27-7.57,12.82-17.47,12.82c-7.91,0-17.03-3.53-17.03-10.41V614.39z"/>
		<path class="st0" d="M704.9,591.33h-7.32v-6.47h7.49V572.9h8.18v11.96h10.42v6.47h-10.42v20.39c0,8.87,6.02,9.98,9.28,9.98
			c1.21,0,1.99-0.08,1.99-0.08v6.97c0,0-1.21,0.18-3.02,0.18c-5.51,0-16.6-1.72-16.6-16.26V591.33z"/>
		<path class="st0" d="M738.2,591.33h-7.31v-6.47h15.66v26.17c0,6.03,1.21,10.86,8.17,10.86c8.7,0,14.12-8.35,14.12-16.96v-13.59
			h-7.31v-6.47h15.66v35.3c0,1.2,0.68,1.89,1.89,1.89h4.56v6.37h-9.03c-3.79,0-5.51-1.72-5.51-4.81v-1.9c0-1.46,0.16-2.59,0.16-2.59
			h-0.16c-0.88,2.34-5.78,10.33-16.62,10.33c-9.38,0-14.28-5.17-14.28-16.7V591.33z"/>
		<path class="st0" d="M811.96,583.83c9.9,0,13.42,7.31,13.42,7.31h0.18c0,0-0.26-1.38-0.26-3.28v-13.76h-7.23v-6.45h15.57v52.41
			c0,1.29,0.69,1.9,1.89,1.9h4.39v6.45h-8.69c-3.88,0-5.42-1.89-5.42-4.73v-0.61c0-1.46,0.26-2.32,0.26-2.32h-0.18
			c0,0-3.54,8.69-14.72,8.69c-11.7,0-19.01-9.29-19.01-22.8C792.17,592.78,800.25,583.83,811.96,583.83z M812.99,622.21
			c6.46,0,12.57-4.63,12.57-15.49c0-8-4.05-15.58-12.31-15.58c-6.97,0-12.57,5.6-12.57,15.49
			C800.68,616.11,805.76,622.21,812.99,622.21z"/>
		<path class="st0" d="M871.43,583.83c12.99,0,23.48,9.56,23.48,22.71c0,13.27-10.5,22.9-23.48,22.9c-13,0-23.5-9.63-23.5-22.9
			C847.93,593.4,858.43,583.83,871.43,583.83z M871.43,622.21c8.17,0,14.97-6.54,14.97-15.67c0-9.03-6.8-15.47-14.97-15.47
			c-8.26,0-14.98,6.45-14.98,15.47C856.45,615.68,863.17,622.21,871.43,622.21z"/>
		<path class="st0" d="M903.95,614.39h7.32v2.84c0,3.7,5.16,5.41,9.97,5.41c4.91,0,8.78-1.97,8.78-5.59c0-4.39-4.82-5.76-10.84-7.92
			c-6.45-2.41-13.61-5.34-13.61-13.25c0-8.61,8.54-12.05,16.11-12.05c6.11,0,15.06,2.41,15.06,8.79v5.24h-7.32v-2.84
			c0-2.67-3.45-4.47-7.67-4.47c-4.12,0-7.74,1.72-7.74,5.25c0,4.13,4.82,5.85,10.07,7.66c6.72,2.24,14.38,5.07,14.38,13.17
			c0,8.27-7.57,12.82-17.48,12.82c-7.91,0-17.04-3.53-17.04-10.41V614.39z"/>
		<path class="st0" d="M0,711.2h8.35v2.67c0,5.93,2.67,11.2,9.39,11.2c4.82,0,9.21-2.93,9.21-11.2v-36.31h-8.78v-6.63h24.19v6.63
			h-6.81v36.84c0,12.99-9.12,18.32-17.89,18.32c-8.69,0-17.65-4.99-17.65-18V711.2z"/>
		<path class="st0" d="M55.86,694.6h-7.32v-6.45H64.2v26.15c0,6.03,1.21,10.85,8.18,10.85c8.7,0,14.11-8.36,14.11-16.96v-13.6h-7.31
			v-6.45h15.67v35.28c0,1.2,0.68,1.89,1.89,1.89h4.56v6.36h-9.04c-3.79,0-5.51-1.71-5.51-4.81v-1.89c0-1.46,0.17-2.6,0.17-2.6h-0.17
			c-0.86,2.34-5.77,10.34-16.6,10.34c-9.39,0-14.29-5.16-14.29-16.7V694.6z"/>
		<path class="st0" d="M110.5,725.23h6.55v-28.75c0-1.29-0.69-1.89-1.9-1.89h-5.42v-6.45h9.82c3.79,0,5.59,1.53,5.59,5.08v2.75
			c0,1.72-0.17,3.01-0.17,3.01h0.17c1.98-6.37,7.05-11.37,13.76-11.37c1.12,0,2.16,0.18,2.16,0.18v8.26c0,0-1.04-0.24-2.41-0.24
			c-9.29,0-13.25,9.38-13.25,17.9v11.53h6.45v6.45H110.5V725.23z"/>
		<path class="st0" d="M148.81,725.23h6.37V694.6h-6.54v-6.45h14.88v37.09h6.3v6.45h-21V725.23z M163.01,670.93h9.54l-10.67,10.93
			h-7.83L163.01,670.93z"/>
		<path class="st0" d="M198.11,687.1c9.9,0,13.43,7.33,13.43,7.33h0.17c0,0-0.27-1.39-0.27-3.29v-13.77h-7.22v-6.45h15.58v52.41
			c0,1.3,0.69,1.9,1.9,1.9h4.38v6.45h-8.69c-3.87,0-5.42-1.89-5.42-4.73v-0.6c0-1.47,0.26-2.33,0.26-2.33h-0.17
			c0,0-3.53,8.7-14.71,8.7c-11.7,0-19.03-9.29-19.03-22.81C178.32,696.05,186.41,687.1,198.11,687.1z M199.15,725.5
			c6.45,0,12.57-4.66,12.57-15.51c0-8-4.04-15.56-12.31-15.56c-6.97,0-12.56,5.59-12.56,15.48
			C186.85,719.38,191.92,725.5,199.15,725.5z"/>
		<path class="st0" d="M235.12,725.23h6.8V694.6h-7.23v-6.45h15.59v37.09h6.88v6.45h-22.04V725.23z M241.75,670.93h8.78v8.52h-8.78
			V670.93z"/>
		<path class="st0" d="M288.14,687.1c6.45,0,17.03,2.41,17.03,9.9v5.34h-7.39v-3.01c0-3.36-5.51-4.99-9.39-4.99
			c-8.78,0-14.8,6.2-14.8,15.49c0,9.89,6.96,15.67,15.32,15.67c7.4,0,12.39-4.4,13.94-5.59l3.19,6.1c-1.98,1.8-8.26,6.71-17.47,6.71
			c-12.57,0-23.5-8.7-23.5-22.73C265.08,696.66,275.14,687.1,288.14,687.1z"/>
		<path class="st0" d="M338.32,687.1c12.99,0,23.49,9.56,23.49,22.73c0,13.26-10.5,22.89-23.49,22.89c-12.99,0-23.5-9.63-23.5-22.89
			C314.82,696.66,325.33,687.1,338.32,687.1z M338.32,725.5c8.18,0,14.97-6.56,14.97-15.67c0-9.03-6.79-15.49-14.97-15.49
			c-8.27,0-14.98,6.46-14.98,15.49C323.34,718.94,330.05,725.5,338.32,725.5z"/>
		<path class="st0" d="M370.85,717.67h7.32v2.84c0,3.7,5.16,5.43,9.98,5.43c4.9,0,8.77-1.99,8.77-5.59c0-4.4-4.81-5.78-10.83-7.93
			c-6.45-2.41-13.6-5.34-13.6-13.26c0-8.61,8.51-12.05,16.1-12.05c6.11,0,15.05,2.41,15.05,8.79v5.24h-7.31v-2.83
			c0-2.68-3.44-4.48-7.65-4.48c-4.13,0-7.75,1.72-7.75,5.26c0,4.12,4.82,5.84,10.07,7.66c6.71,2.23,14.37,5.07,14.37,13.17
			c0,8.25-7.57,12.82-17.46,12.82c-7.92,0-17.04-3.53-17.04-10.41V717.67z"/>
		<path class="st0" d="M458.03,687.1c9.89,0,13.43,7.33,13.43,7.33h0.16c0,0-0.25-1.39-0.25-3.29v-13.77h-7.24v-6.45h15.57v52.41
			c0,1.3,0.69,1.9,1.9,1.9H486v6.45h-8.69c-3.87,0-5.43-1.89-5.43-4.73v-0.6c0-1.47,0.26-2.33,0.26-2.33h-0.18
			c0,0-3.52,8.7-14.72,8.7c-11.7,0-19.02-9.29-19.02-22.81C438.23,696.05,446.32,687.1,458.03,687.1z M459.06,725.5
			c6.45,0,12.56-4.66,12.56-15.51c0-8-4.05-15.56-12.3-15.56c-6.97,0-12.56,5.59-12.56,15.48
			C446.76,719.38,451.83,725.5,459.06,725.5z"/>
		<path class="st0" d="M519.13,704.92h2.75v-1.63c0-6.88-3.95-9.31-9.28-9.31c-6.89,0-12.48,4.22-12.48,4.22l-3.35-5.94
			c0,0,6.37-5.16,16.52-5.16c11.1,0,16.95,5.78,16.95,16.79v19.45c0,1.3,0.69,1.9,1.9,1.9h4.39v6.45h-8.69
			c-3.87,0-5.43-1.89-5.43-4.73v-0.6c0-1.72,0.36-2.84,0.36-2.84h-0.19c0,0-3.78,9.21-14.37,9.21c-7.22,0-14.45-4.22-14.45-13.17
			C493.74,705.87,511.91,704.92,519.13,704.92z M510.01,726.27c7.4,0,11.97-7.58,11.97-14.13v-1.81h-2.15
			c-3.95,0-17.65,0.17-17.65,8.51C502.17,722.73,505.02,726.27,510.01,726.27z"/>
		<path class="st0" d="M569.05,724.98h7.57v-47.42h-7.57v-6.63h28.31c3.69,0,7.4,0.26,10.42,1.63c6.28,2.67,10.32,9.12,10.32,17.21
			c0,8.53-4.47,15.41-11.45,17.82c-2.83,1.03-5.77,1.29-9.12,1.29h-12.3v16.1h7.65v6.7h-23.83V724.98z M596.49,701.82
			c2.76,0,4.92-0.43,6.82-1.2c3.85-1.72,6.1-5.6,6.1-10.85c0-4.9-1.98-8.51-5.42-10.33c-1.89-1.02-4.47-1.46-7.4-1.46h-11.36v23.84
			H596.49z"/>
		<path class="st0" d="M627.15,725.23h6.53v-28.75c0-1.29-0.69-1.89-1.89-1.89h-5.43v-6.45h9.82c3.78,0,5.59,1.53,5.59,5.08v2.75
			c0,1.72-0.17,3.01-0.17,3.01h0.17c1.98-6.37,7.05-11.37,13.77-11.37c1.11,0,2.14,0.18,2.14,0.18v8.26c0,0-1.03-0.24-2.41-0.24
			c-9.29,0-13.24,9.38-13.24,17.9v11.53h6.44v6.45h-21.33V725.23z"/>
		<path class="st0" d="M686.7,687.1c12.39,0,18.85,9.13,18.85,20.4c0,1.12-0.26,3.19-0.26,3.19h-31.84
			c0.51,9.64,7.32,14.81,15.07,14.81c7.57,0,12.98-4.91,12.98-4.91l3.45,6.11c0,0-6.54,6.02-16.96,6.02
			c-13.69,0-23.06-9.89-23.06-22.81C664.93,696.05,674.3,687.1,686.7,687.1z M696.93,705.35c-0.25-7.65-4.9-11.62-10.4-11.62
			c-6.37,0-11.54,4.31-12.74,11.62H696.93z"/>
		<path class="st0" d="M714.75,717.67h7.31v2.84c0,3.7,5.16,5.43,9.98,5.43c4.91,0,8.79-1.99,8.79-5.59c0-4.4-4.83-5.78-10.85-7.93
			c-6.46-2.41-13.61-5.34-13.61-13.26c0-8.61,8.54-12.05,16.1-12.05c6.11,0,15.06,2.41,15.06,8.79v5.24h-7.31v-2.83
			c0-2.68-3.45-4.48-7.66-4.48c-4.13,0-7.75,1.72-7.75,5.26c0,4.12,4.82,5.84,10.08,7.66c6.7,2.23,14.36,5.07,14.36,13.17
			c0,8.25-7.56,12.82-17.48,12.82c-7.91,0-17.03-3.53-17.03-10.41V717.67z"/>
		<path class="st0" d="M758.99,725.23h6.8V694.6h-7.23v-6.45h15.57v37.09h6.88v6.45h-22.02V725.23z M765.61,670.93h8.79v8.52h-8.79
			V670.93z"/>
		<path class="st0" d="M809.34,687.1c9.89,0,13.42,7.33,13.42,7.33h0.16c0,0-0.26-1.39-0.26-3.29v-13.77h-7.22v-6.45h15.58v52.41
			c0,1.3,0.69,1.9,1.89,1.9h4.4v6.45h-8.7c-3.87,0-5.41-1.89-5.41-4.73v-0.6c0-1.47,0.25-2.33,0.25-2.33h-0.17
			c0,0-3.55,8.7-14.73,8.7c-11.7,0-19.01-9.29-19.01-22.81C789.54,696.05,797.63,687.1,809.34,687.1z M810.36,725.5
			c6.46,0,12.56-4.66,12.56-15.51c0-8-4.05-15.56-12.31-15.56c-6.97,0-12.56,5.59-12.56,15.48
			C798.05,719.38,803.13,725.5,810.36,725.5z"/>
		<path class="st0" d="M867.51,687.1c12.39,0,18.85,9.13,18.85,20.4c0,1.12-0.25,3.19-0.25,3.19h-31.84
			c0.51,9.64,7.31,14.81,15.05,14.81c7.58,0,13-4.91,13-4.91l3.44,6.11c0,0-6.54,6.02-16.96,6.02c-13.67,0-23.05-9.89-23.05-22.81
			C845.74,696.05,855.12,687.1,867.51,687.1z M877.75,705.35c-0.26-7.65-4.9-11.62-10.41-11.62c-6.36,0-11.52,4.31-12.73,11.62
			H877.75z M863.03,670.93h9.05l7.57,10.93h-7.49l-4.56-6.88h-0.17l-4.49,6.88h-7.48L863.03,670.93z"/>
		<path class="st0" d="M896.26,725.23h6.8v-28.75c0-1.29-0.69-1.89-1.91-1.89h-5.32v-6.45h9.8c3.79,0,5.52,1.62,5.52,4.81v2.24
			c0,1.38-0.26,2.5-0.26,2.5h0.18c0.86-2.32,5.93-10.6,16.96-10.6c9.98,0,14.46,5.61,14.46,16.7v21.43h6.88v6.45h-15.23V705.7
			c0-6.11-1.21-10.93-8.18-10.93c-8.78,0-14.54,8-14.54,16.7v13.77h6.89v6.45h-22.02V725.23z"/>
		<path class="st0" d="M980.07,687.1c6.46,0,17.05,2.41,17.05,9.9v5.34h-7.4v-3.01c0-3.36-5.51-4.99-9.39-4.99
			c-8.78,0-14.8,6.2-14.8,15.49c0,9.89,6.97,15.67,15.33,15.67c7.4,0,12.39-4.4,13.94-5.59l3.18,6.1c-1.98,1.8-8.26,6.71-17.48,6.71
			c-12.56,0-23.48-8.7-23.48-22.73C957.02,696.66,967.09,687.1,980.07,687.1z"/>
		<path class="st0" d="M1007.45,725.23h6.79V694.6h-7.22v-6.45h15.57v37.09h6.89v6.45h-22.03V725.23z M1014.07,670.93h8.78v8.52
			h-8.78V670.93z"/>
		<path class="st0" d="M1062.6,704.92h2.77v-1.63c0-6.88-3.96-9.31-9.3-9.31c-6.87,0-12.48,4.22-12.48,4.22l-3.35-5.94
			c0,0,6.37-5.16,16.52-5.16c11.11,0,16.96,5.78,16.96,16.79v19.45c0,1.3,0.68,1.9,1.89,1.9h4.39v6.45h-8.69
			c-3.88,0-5.43-1.89-5.43-4.73v-0.6c0-1.72,0.35-2.84,0.35-2.84h-0.18c0,0-3.78,9.21-14.37,9.21c-7.23,0-14.45-4.22-14.45-13.17
			C1037.23,705.87,1055.38,704.92,1062.6,704.92z M1053.49,726.27c7.38,0,11.96-7.58,11.96-14.13v-1.81h-2.15
			c-3.96,0-17.64,0.17-17.64,8.51C1045.66,722.73,1048.49,726.27,1053.49,726.27z"/>
	</g>
</g>
</svg>
