<?xml version="1.0" encoding="UTF-8"?><svg xmlns="http://www.w3.org/2000/svg" viewBox="0 0 542.55 145.04"><defs><style>.f{fill:#fff;}.g{font-family:Heebo-Black, Heebo;font-size:39px;}.g,.h{fill:#176288;}.i{letter-spacing:-.06em;}.j{letter-spacing:-.02em;}</style></defs><g id="a"><g><path class="f" d="M144.24,72.66c0,39.21-31.79,71-71,71S2.24,111.87,2.24,72.66,34.03,1.66,73.24,1.66s71,31.79,71,71Z"/><g><path class="h" d="M36.65,105.43V29.9h-1.81l-3.5,25.59s-2.57,22.73-17.59,23.79v4.93s14.54,.35,18.5,18.7l4.39,2.54Z"/><path class="h" d="M48.1,105.43V29.9h-1.81l-3.5,25.59s-2.57,22.73-17.59,23.79v4.93s14.54,.35,18.5,18.7l4.39,2.54Z"/><path class="h" d="M59.55,105.43V29.9h-1.81l-3.5,25.59s-2.57,22.73-17.59,23.79v4.93s14.54,.35,18.5,18.7l4.39,2.54Z"/><path class="h" d="M93.14,105.43V29.9h-1.81l-3.5,25.59s-2.57,22.73-17.59,23.79v4.93s14.54,.35,18.5,18.7l4.39,2.54Z"/><path class="h" d="M104.59,105.43V29.9h-1.81l-3.5,25.59s-2.57,22.73-17.59,23.79v4.93s14.54,.35,18.5,18.7l4.39,2.54Z"/><path class="h" d="M116.04,105.43V29.9h-1.81l-3.5,25.59s-2.57,22.73-17.59,23.79v4.93s14.54,.35,18.5,18.7l4.39,2.54Z"/><g><polygon class="h" points="51.26 84.09 99.25 111.22 99.25 115.42 51.26 88.75 51.26 84.09"/><polygon class="h" points="70.64 84.09 51.26 84.09 99.25 111.22 120.87 110.1 70.64 84.09"/><polygon class="h" points="99.25 111.22 120.87 110.1 120.87 114.03 99.25 115.42 99.25 111.22"/></g></g></g><path class="f" d="M535.9,29.9H129.92V115.42h405.97c3.67,0,6.65-2.98,6.65-6.65V36.55c0-3.67-2.98-6.65-6.65-6.65Z"/><text class="g" transform="translate(164.42 81.33)"><tspan x="0" y="0">INFORM</tspan><tspan class="i" x="147.24" y="0">A</tspan><tspan x="171.56" y="0">TI</tspan><tspan class="j" x="208.2" y="0">V</tspan><tspan x="233.52" y="0">O SAJ</tspan></text></g><g id="b"/><g id="c"/><g id="d"/><g id="e"/></svg>