<?xml version="1.0" encoding="utf-8"?>
<!-- Generator: Adobe Illustrator 26.3.1, SVG Export Plug-In . SVG Version: 6.00 Build 0)  -->
<svg version="1.1" id="Camada_1" xmlns="http://www.w3.org/2000/svg" xmlns:xlink="http://www.w3.org/1999/xlink" x="0px" y="0px"
	 viewBox="0 0 455.38 85.52" style="enable-background:new 0 0 455.38 85.52;" xml:space="preserve">
<style type="text/css">
	.st0{fill:#FFFFFF;}
	.st1{fill:#176288;}
</style>
<path class="st0" d="M448.73,0H42.76v85.52h405.97c3.67,0,6.65-2.98,6.65-6.65V6.65C455.38,2.98,452.41,0,448.73,0z"/>
<g>
	<path class="st1" d="M108.56,54.93h-6.76v-26.3h6.76V54.93z"/>
	<path class="st1" d="M134.92,54.93h-6.76l-8.69-15.21v15.21h-6.77v-26.3h6.77l8.69,15.21V28.63h6.76V54.93z"/>
	<path class="st1" d="M145.46,54.93h-6.79v-26.3h6.79V54.93z M156.39,34.1h-12.83v-5.47h12.83V34.1z M155.41,44.79h-11.85v-5.46
		h11.85V44.79z"/>
	<path class="st1" d="M181.39,42.18c0,2.72-0.5,5.06-1.49,7.02c-0.99,1.96-2.36,3.46-4.11,4.52c-1.75,1.05-3.75,1.58-6,1.58
		c-2.28,0-4.29-0.53-6.05-1.58c-1.76-1.05-3.13-2.56-4.13-4.52c-0.99-1.96-1.49-4.3-1.49-7.02V41.4c0-2.72,0.49-5.06,1.48-7.02
		c0.99-1.96,2.36-3.47,4.11-4.53c1.75-1.06,3.77-1.59,6.04-1.59c2.25,0,4.26,0.53,6.01,1.59c1.75,1.06,3.13,2.57,4.13,4.53
		c1,1.96,1.5,4.3,1.5,7.02V42.18z M174.51,41.36c0-1.66-0.18-3.05-0.55-4.17s-0.91-1.96-1.62-2.53c-0.71-0.57-1.57-0.85-2.58-0.85
		c-1.06,0-1.94,0.28-2.64,0.85c-0.7,0.57-1.22,1.41-1.57,2.53s-0.52,2.51-0.52,4.17v0.81c0,1.63,0.18,3.01,0.53,4.14
		c0.35,1.13,0.88,1.99,1.59,2.57c0.7,0.58,1.59,0.88,2.65,0.88c1.01,0,1.87-0.29,2.57-0.88c0.71-0.58,1.24-1.44,1.6-2.57
		c0.36-1.13,0.54-2.51,0.54-4.14V41.36z"/>
	<path class="st1" d="M194.98,28.63c2.06,0,3.84,0.3,5.35,0.91c1.51,0.61,2.67,1.5,3.49,2.68c0.82,1.18,1.23,2.64,1.23,4.39
		c0,1.57-0.23,2.86-0.7,3.88c-0.46,1.02-1.11,1.85-1.93,2.49c-0.83,0.64-1.79,1.2-2.9,1.65l-2.22,1.35h-8.58l-0.04-5.47h6.23
		c0.75,0,1.37-0.12,1.87-0.36c0.5-0.24,0.87-0.6,1.12-1.08c0.25-0.48,0.37-1.06,0.37-1.76c0-1.01-0.28-1.8-0.83-2.37
		c-0.55-0.57-1.37-0.85-2.46-0.85h-3.74v20.83h-6.77v-26.3H194.98z M192.94,43.35l7.19-0.05l5.78,11.35v0.29h-7.26L192.94,43.35z"/>
	<path class="st1" d="M214.33,28.63l1.07,21.25v5.06h-6.79v-26.3H214.33z M217.49,28.63l5.47,17.38l5.46-17.38h5.49l-8.73,26.3
		h-4.46L212,28.63H217.49z M237.32,28.63v26.3h-6.81v-5.06l1.07-21.25H237.32z"/>
	<path class="st1" d="M246.38,54.93h-7.28l9.65-26.3h4.59l-0.79,6.34L246.38,54.93z M257.45,50.52h-13.5v-5.47h13.5V50.52z
		 M251.34,34.97l-0.88-6.34h4.64l9.7,26.3h-7.28L251.34,34.97z"/>
	<path class="st1" d="M285.07,34.1h-22.15v-5.47h22.15V34.1z M277.31,54.93h-6.77v-26.3h6.77V54.93z"/>
	<path class="st1" d="M294.77,54.93h-6.76v-26.3h6.76V54.93z"/>
	<path class="st1" d="M309.66,48.15l0.92,6.77h-4.93l-8.73-26.3h7.55L309.66,48.15z M314.25,28.63h7.59l-8.78,26.3h-4.9l0.87-6.77
		L314.25,28.63z"/>
	<path class="st1" d="M345.51,42.18c0,2.72-0.5,5.06-1.49,7.02c-0.99,1.96-2.37,3.46-4.11,4.52c-1.75,1.05-3.75,1.58-6,1.58
		c-2.28,0-4.29-0.53-6.05-1.58c-1.76-1.05-3.13-2.56-4.13-4.52c-0.99-1.96-1.49-4.3-1.49-7.02V41.4c0-2.72,0.49-5.06,1.48-7.02
		c0.99-1.96,2.36-3.47,4.11-4.53c1.75-1.06,3.77-1.59,6.04-1.59c2.25,0,4.25,0.53,6.01,1.59c1.75,1.06,3.13,2.57,4.13,4.53
		c1,1.96,1.5,4.3,1.5,7.02V42.18z M338.62,41.36c0-1.66-0.19-3.05-0.55-4.17s-0.91-1.96-1.62-2.53c-0.71-0.57-1.57-0.85-2.58-0.85
		c-1.06,0-1.94,0.28-2.64,0.85c-0.7,0.57-1.22,1.41-1.57,2.53s-0.52,2.51-0.52,4.17v0.81c0,1.63,0.18,3.01,0.53,4.14
		c0.35,1.13,0.88,1.99,1.59,2.57c0.7,0.58,1.59,0.88,2.65,0.88c1.01,0,1.87-0.29,2.57-0.88c0.71-0.58,1.24-1.44,1.6-2.57
		c0.36-1.13,0.54-2.51,0.54-4.14V41.36z"/>
	<path class="st1" d="M371.2,47.85c0-0.47-0.1-0.89-0.3-1.25c-0.2-0.36-0.61-0.72-1.23-1.07c-0.62-0.36-1.56-0.74-2.83-1.17
		c-1.13-0.39-2.23-0.82-3.31-1.32c-1.07-0.49-2.04-1.08-2.89-1.74c-0.86-0.67-1.54-1.46-2.04-2.37c-0.51-0.91-0.76-1.97-0.76-3.19
		c0-1.54,0.45-2.87,1.34-3.98c0.89-1.11,2.11-1.98,3.65-2.58c1.54-0.61,3.29-0.91,5.26-0.91c1.94,0,3.65,0.33,5.14,0.98
		c1.49,0.66,2.66,1.6,3.5,2.83c0.85,1.23,1.27,2.7,1.27,4.41h-6.76c0-0.57-0.12-1.07-0.35-1.5c-0.24-0.43-0.6-0.77-1.08-1.01
		c-0.49-0.24-1.11-0.36-1.87-0.36c-0.73,0-1.35,0.1-1.85,0.31c-0.5,0.21-0.87,0.47-1.12,0.8c-0.25,0.33-0.37,0.7-0.37,1.11
		c0,0.47,0.19,0.88,0.58,1.23c0.38,0.35,0.92,0.67,1.61,0.98c0.69,0.3,1.48,0.6,2.38,0.9c1.88,0.6,3.47,1.3,4.78,2.1
		c1.31,0.8,2.3,1.75,2.99,2.85c0.69,1.1,1.03,2.41,1.03,3.91c0,1.6-0.4,2.96-1.2,4.07c-0.8,1.11-1.94,1.96-3.41,2.54
		s-3.2,0.87-5.19,0.87c-1.37,0-2.72-0.17-4.04-0.52c-1.32-0.35-2.51-0.89-3.58-1.63c-1.07-0.73-1.92-1.68-2.55-2.83
		c-0.63-1.15-0.95-2.53-0.95-4.13h6.79c0,0.72,0.09,1.33,0.26,1.81c0.17,0.48,0.44,0.87,0.8,1.17c0.36,0.3,0.81,0.51,1.36,0.63
		c0.54,0.13,1.17,0.19,1.9,0.19c0.75,0,1.34-0.1,1.78-0.31c0.44-0.2,0.76-0.47,0.95-0.79S371.2,48.21,371.2,47.85z"/>
	<path class="st1" d="M386.39,54.93h-7.28l9.65-26.3h4.59l-0.79,6.34L386.39,54.93z M397.46,50.52h-13.5v-5.47h13.5V50.52z
		 M391.36,34.97l-0.89-6.34h4.64l9.7,26.3h-7.28L391.36,34.97z"/>
	<path class="st1" d="M416.89,28.63h6.76v17.94c0,1.76-0.41,3.29-1.22,4.6c-0.81,1.31-1.91,2.32-3.3,3.04
		c-1.39,0.72-2.94,1.08-4.66,1.08c-1.77,0-3.35-0.3-4.73-0.9c-1.39-0.6-2.48-1.53-3.27-2.77c-0.79-1.25-1.19-2.84-1.19-4.78h6.81
		c0,1.23,0.21,2.04,0.62,2.42c0.41,0.39,1,0.58,1.77,0.58c0.53,0,0.98-0.13,1.34-0.4c0.36-0.26,0.63-0.64,0.81-1.13
		c0.18-0.49,0.27-1.07,0.27-1.74V28.63z"/>
</g>
<g>
	<path class="st0" d="M85.52,42.76c0,23.62-19.14,42.76-42.76,42.76C19.14,85.52,0,66.38,0,42.76C0,19.14,19.14,0,42.76,0
		C66.38,0,85.52,19.14,85.52,42.76z"/>
	<g>
		<path class="st1" d="M20.72,62.5V17.01h-1.09l-2.11,15.41c0,0-1.55,13.69-10.59,14.33v2.97c0,0,8.76,0.21,11.14,11.26L20.72,62.5z
			"/>
		<path class="st1" d="M27.62,62.5V17.01h-1.09l-2.11,15.41c0,0-1.55,13.69-10.59,14.33v2.97c0,0,8.76,0.21,11.14,11.26L27.62,62.5z
			"/>
		<path class="st1" d="M34.51,62.5V17.01h-1.09l-2.11,15.41c0,0-1.55,13.69-10.59,14.33v2.97c0,0,8.76,0.21,11.14,11.26L34.51,62.5z
			"/>
		<path class="st1" d="M54.75,62.5V17.01h-1.09l-2.11,15.41c0,0-1.55,13.69-10.59,14.33v2.97c0,0,8.76,0.21,11.14,11.26L54.75,62.5z
			"/>
		<path class="st1" d="M61.64,62.5V17.01h-1.09l-2.11,15.41c0,0-1.55,13.69-10.59,14.33v2.97c0,0,8.76,0.21,11.14,11.26L61.64,62.5z
			"/>
		<path class="st1" d="M68.54,62.5V17.01h-1.09l-2.11,15.41c0,0-1.55,13.69-10.59,14.33v2.97c0,0,8.76,0.21,11.14,11.26L68.54,62.5z
			"/>
		<g>
			<polygon class="st1" points="29.52,49.65 58.42,65.99 58.42,68.52 29.52,52.45 			"/>
			<polygon class="st1" points="41.2,49.65 29.52,49.65 58.42,65.99 71.45,65.31 			"/>
			<polygon class="st1" points="58.42,65.99 71.45,65.31 71.45,67.68 58.42,68.52 			"/>
		</g>
	</g>
</g>
</svg>
