<?xml version="1.0" encoding="UTF-8"?><svg xmlns="http://www.w3.org/2000/svg" xmlns:xlink="http://www.w3.org/1999/xlink" viewBox="0 0 957.91 975.39"><defs><style>.f{fill:#fff;fill-rule:evenodd;}</style></defs><g id="a"><image transform="translate(26.61)" xlink:href="Aniversariantes do dia.png"/></g><g id="b"/><g id="c"/><g id="d"><g><path class="f" d="M785.66,875.31c-.11-.76,.14-1.17,.66-1.31,2.56-.15,3.4,1.41,5.25,1.97,1.22-2.07,.51-6.06,3.28-6.57,3.27-.43,3.87,1.82,5.91,2.63,2.12-1.16,2.06-4.5,4.59-5.25,2.77,.3,3.02,3.11,5.25,3.94,1.5-.9,1.54-3.27,3.28-3.94,4.01-.51,5.24,1.76,5.91,4.6,2.84-.44,3.53-3.04,6.56-3.28,1.43,1.42,2.86,2.83,2.63,5.91,3.1,.26,2.99-2.69,6.57-1.97-.96,3.2-3.32,5-7.88,4.59-1.13-1.28-1.14-3.67-1.97-5.25-2.49,.13-2.49,2.76-5.25,2.62-2.92-.36-3.36-3.2-4.6-5.25-2.18,1.32-2.92,4.08-5.25,5.25-2.04-1.02-3.57-2.56-4.6-4.6-2.11,.96-1.89,4.23-3.94,5.25-3.27,.43-3.87-1.82-5.91-2.62-2.15,1.14-1.11,5.45-3.28,6.56-3.4-.1-5.25-1.74-7.22-3.28Z"/><path class="f" d="M786.32,837.23c6.39-8.85,15.77,5.16,7.22,7.88-3.68,1.17-8.61-1.25-7.22-7.88Zm7.88,2.62c-.02-2.39-1.93-2.88-4.59-2.62-4.45,3.38,3.83,8.36,4.59,2.62Z"/><path class="f" d="M792.88,893.69c4.73-1.79,8.59,0,9.19,3.28,1.87,10.23-17.15,6.53-9.19-3.28Zm6.57,5.91c.2-3.05-1.15-4.54-3.94-4.6-4.73,2.11,.53,8.93,3.94,4.6Z"/><path class="f" d="M808.64,912.07c1.99-9.39,12.05-10.71,21.01-13.13-8.22,3.16-13.51,9.25-21.01,13.13Z"/><path class="f" d="M811.27,847.74c12.62-2.16,23.85,4.73,33.48,9.85,8.27,4.4,16.1,8.74,22.32,13.79,3.83-1.86,6.69-4.69,9.85-7.22-1.5-7.99-5.2-22.16-3.94-32.17,.43-3.4,1.19-8.56,5.25-9.19-.61,14.16-1.68,26.48,0,40.05,6.92-2.27,12.11-9.77,21.01-7.88,2.44,1.66,3.01,5.31,3.94,7.88,2.71,7.54,6.18,16.51,9.19,24.95-6.79,10.39-23.64,18.96-40.71,22.32-13.3,2.62-23.24,2.99-30.86-5.25,.8-8.83,6.94-12.32,10.5-18.38-10.1-.45-17.68,5.04-26.26,3.94,1.36-5.59,6.88-6.08,11.82-6.56,5.17-.51,11.79,1.57,15.75,.66,6.98-1.62,7.97-10.06,13.79-11.82-15.42-9.75-35.02-15.32-53.83-21.67-.86-.24-1.03-1.16-1.97-1.31-.18-1.06,.62-1.13,.66-1.97Zm77.47,24.95c4.09-4.5,9.67-9.3,9.85-16.42-8.78,.85-13.32,5.94-19.69,9.19-.86,2.23,1.46,4.58,0,5.25-.91-1.06-.55-3.38-1.97-3.94-1.79,2.14-4.45,3.43-6.56,5.25-.63,2.43,4.48,2.46,2.62,3.94-1.89-.3-2.05-2.32-4.59-1.97-4.02,3.42-8.6,6.29-11.16,11.16,2.72-.09,5.07,.18,6.56,1.31h-8.53c-4.86,5.21-10.9,9.24-11.82,18.38,19.45-5.79,33.43-19.12,45.3-32.17Z"/><path class="f" d="M817.83,833.29c.95-2.11,2.45-3.68,3.28-5.91-.36-2.7-1.88-4.25-1.97-7.22,3.38,2.91,8.09,4.15,12.47,1.31-1.02,4.43-2.88,8.03-.66,12.47-4.41-1.71-8.13-2.28-13.13-.66Zm9.85-2.62c-.8-2.38,1.31-5.18,0-5.91-.41,1.4-4.04,.62-4.59,0,.29,2.26-.26,3.68-.66,5.25,1.89,.08,4.3-.36,5.25,.66Z"/><path class="f" d="M825.71,928.49c2.12-3.66,1.73-5.95,.66-10.5,2.42,2.44,6.29,3.22,9.85,1.31-.6,4.18-1.66,6.02-.65,10.51-2.61-2.18-5.71-1.97-9.85-1.31Zm7.88-2.63c-2.35-.55,1.69-3.38-.66-3.94-.6,2.39-3.71-1.37-3.94,.66,1.92,.56-.39,2.11,0,3.28,2.08-.9,3.96,1.63,4.6,0Z"/><path class="f" d="M836.21,838.55c3.1-1.05,5.19,.3,5.25,3.94-2.47,3.26-8.09,.06-5.25-3.94Z"/><path class="f" d="M837.52,797.18c-2.21-10.24,12.33-8.98,12.47-1.31,.11,5.45-10.47,10.61-12.47,1.31Zm9.2,.66c.92-4.52-2.61-6.25-5.91-4.6-3.14,4.5,3.02,8.11,5.91,4.6Z"/><path class="f" d="M849.34,873.34c.5,10.42-11.6-.5-1.97-1.31,.48,.61,1.19,.99,1.97,1.31Z"/><path class="f" d="M849.34,825.41c1.55-1.08,2.32-2.94,4.6-3.28-.72-2.34-3.52-2.6-3.94-5.25,.18-3.78,4.43-5.44,7.88-3.94-.77,1.85-3.25,2-5.25,2.63,.22,3.07,3.73,2.84,3.94,5.91-.25,2.59-2.67,3.02-3.94,4.6,.3,2.54,3.22,2.47,3.94,4.6-.13,2.93-2.06,4.07-3.28,5.91,1.3,2.2,5.99,1.01,6.56,3.94-.09,2.32-1.88,2.94-1.97,5.25,1.37,1.04,3.45,1.36,5.91,1.32,.93,2.3,1.13,7.04-.66,8.53-3.01-.86-.9-2.95-1.31-5.91-1.54-1.31-5.44-.24-6.56-1.97-.29-3.13,.93-4.76,1.97-6.57-2.05-1.23-5.81-.76-6.57-3.28-.03-3.31,2.28-4.29,3.28-6.57-1.66-1.84-5.23-1.77-4.6-5.91Z"/><path class="f" d="M862.47,917.33c21.71-3.24,39.32-10.58,51.87-22.98,5.06,9.6,7.98,21.35,12.47,31.51-5.1,5.17-17.07,13.24-27.57,11.82-3.55-.48-13.57-6.89-17.73-9.19-7.57-4.2-13.45-8.36-19.04-11.16Z"/><path class="f" d="M873.63,803.09c1.92,.17,2.02-1.48,3.94-1.31,.1-3.16-2.82-3.3-1.97-7.22,1.89-1.71,7.73-4.57,8.53,0-2.64-.45-3.74,.63-5.91,.66-.25,2.87,1.88,3.38,1.97,5.91-.42,2.86-3.36,3.2-5.25,4.6,1.39,1.68,3.23,2.9,5.25,3.94-1.2,2.53-1.4,6.05-5.25,5.91,.49-1.91,1.56-3.25,2.63-4.6-2.52-1.44-6.23-3.64-3.94-7.88Z"/><path class="f" d="M885.45,836.57c.04-8.5,2.48-20.27,10.5-22.98,.87,4.26-3.89,6.94-5.91,10.51-2.17,3.83-3.02,8.18-4.6,12.47Z"/><path class="f" d="M905.15,846.42c2.9-4.18,4.89-12.03,.66-16.42,3.17-1.61,5.74,3,9.19,3.28,3.27-.45,5.16-2.28,8.54-2.62-2.32,4.31-3.73,11.72-1.31,17.07-4.29-2.69-11.47-3.4-17.07-1.31Zm5.91-3.94c2.19-1.87,5.55,1.04,7.22-.66-2.38-1.38,1.73-5.19-.66-6.57-1.44,1.82-4.68-.09-6.56,0,1.96,2.65-1.05,5.68,0,7.22Z"/><path class="f" d="M906.46,942.28c-.12-.56,.26-.62,.66-.66,8.62-1.89,15.16-5.85,22.32-9.19,2.89,9.58,6.9,18.05,9.85,27.57-11.2-5.64-21.49-12.2-32.83-17.72Z"/><path class="f" d="M914.99,803.09c.58,4.52-1.39,6.49-5.91,5.91-5.42-3.99,1.92-11.33,5.91-5.91Z"/></g><g><path class="f" d="M84.69,69.75c.76-.11,1.17,.14,1.31,.66,.15,2.56-1.41,3.4-1.97,5.25,2.07,1.22,6.06,.51,6.57,3.28,.43,3.27-1.82,3.87-2.63,5.91,1.16,2.12,4.51,2.06,5.25,4.6-.3,2.77-3.11,3.02-3.94,5.25,.9,1.5,3.27,1.54,3.94,3.28,.51,4.01-1.76,5.24-4.6,5.91,.44,2.84,3.04,3.53,3.28,6.56-1.42,1.43-2.83,2.86-5.91,2.63-.26,3.1,2.69,2.99,1.97,6.57-3.2-.96-5-3.31-4.59-7.88,1.28-1.13,3.67-1.14,5.25-1.97-.13-2.49-2.76-2.49-2.62-5.25,.36-2.92,3.2-3.36,5.25-4.6-1.32-2.18-4.08-2.92-5.25-5.25,1.02-2.04,2.56-3.57,4.6-4.6-.96-2.11-4.23-1.89-5.25-3.94-.43-3.27,1.82-3.87,2.62-5.91-1.14-2.15-5.45-1.11-6.56-3.28,.1-3.4,1.74-5.26,3.28-7.22Z"/><path class="f" d="M122.77,70.41c8.85,6.39-5.16,15.77-7.88,7.22-1.17-3.68,1.25-8.61,7.88-7.22Zm-2.62,7.88c2.39-.02,2.88-1.93,2.62-4.6-3.38-4.44-8.36,3.83-2.62,4.6Z"/><path class="f" d="M66.31,76.97c1.79,4.73,0,8.59-3.28,9.19-10.23,1.87-6.53-17.15,3.28-9.19Zm-5.91,6.57c3.05,.2,4.54-1.15,4.6-3.94-2.11-4.73-8.93,.53-4.6,3.94Z"/><path class="f" d="M47.93,92.73c9.39,1.99,10.71,12.05,13.13,21.01-3.16-8.22-9.25-13.51-13.13-21.01Z"/><path class="f" d="M112.26,95.35c2.16,12.62-4.72,23.85-9.85,33.48-4.4,8.28-8.74,16.1-13.79,22.32,1.86,3.83,4.69,6.69,7.22,9.85,7.99-1.5,22.16-5.2,32.17-3.94,3.4,.43,8.56,1.19,9.19,5.25-14.16-.61-26.48-1.68-40.05,0,2.27,6.92,9.77,12.11,7.88,21.01-1.66,2.44-5.31,3.01-7.88,3.94-7.54,2.71-16.51,6.18-24.95,9.19-10.39-6.79-18.96-23.64-22.32-40.71-2.62-13.3-2.99-23.24,5.25-30.85,8.83,.79,12.32,6.94,18.38,10.5,.44-10.11-5.04-17.68-3.94-26.26,5.59,1.36,6.08,6.88,6.56,11.82,.51,5.17-1.57,11.79-.66,15.76,1.62,6.98,10.06,7.97,11.82,13.79,9.75-15.42,15.32-35.02,21.66-53.83,.24-.86,1.16-1.03,1.31-1.97,1.06-.18,1.13,.62,1.97,.66Zm-24.95,77.47c4.5,4.09,9.3,9.67,16.41,9.85-.85-8.78-5.94-13.31-9.19-19.69-2.23-.86-4.58,1.46-5.25,0,1.06-.91,3.38-.56,3.94-1.97-2.14-1.8-3.43-4.45-5.25-6.57-2.43-.63-2.46,4.48-3.94,2.62,.3-1.89,2.32-2.05,1.97-4.6-3.42-4.02-6.29-8.6-11.16-11.16,.09,2.71-.18,5.07-1.31,6.56v-8.54c-5.21-4.85-9.24-10.9-18.38-11.82,5.79,19.45,19.12,33.43,32.17,45.3Z"/><path class="f" d="M126.71,101.92c2.11,.95,3.68,2.45,5.91,3.28,2.7-.36,4.25-1.88,7.22-1.97-2.91,3.38-4.15,8.09-1.31,12.47-4.43-1.02-8.03-2.88-12.47-.66,1.71-4.41,2.28-8.13,.66-13.13Zm2.62,9.85c2.38-.8,5.18,1.31,5.91,0-1.4-.41-.61-4.04,0-4.6-2.26,.29-3.68-.26-5.25-.66-.08,1.89,.36,4.3-.66,5.25Z"/><path class="f" d="M31.51,109.8c3.66,2.12,5.95,1.73,10.5,.66-2.44,2.42-3.22,6.29-1.31,9.85-4.18-.6-6.02-1.66-10.51-.66,2.18-2.61,1.97-5.71,1.31-9.85Zm2.63,7.88c.55-2.35,3.39,1.69,3.94-.66-2.39-.6,1.37-3.71-.66-3.94-.56,1.92-2.11-.39-3.28,0,.91,2.07-1.63,3.96,0,4.6Z"/><path class="f" d="M121.45,120.3c1.05,3.1-.3,5.19-3.94,5.25-3.26-2.47-.06-8.09,3.94-5.25Z"/><path class="f" d="M162.82,121.61c10.24-2.21,8.98,12.33,1.31,12.47-5.45,.1-10.61-10.47-1.31-12.47Zm-.66,9.19c4.52,.92,6.25-2.61,4.6-5.91-4.5-3.14-8.11,3.02-4.6,5.91Z"/><path class="f" d="M86.66,133.43c-10.42,.51,.5-11.6,1.31-1.97-.61,.48-.99,1.19-1.31,1.97Z"/><path class="f" d="M134.59,133.43c1.08,1.54,2.94,2.32,3.28,4.6,2.34-.72,2.6-3.52,5.25-3.94,3.78,.18,5.44,4.43,3.94,7.88-1.85-.77-2-3.25-2.63-5.25-3.07,.21-2.84,3.72-5.91,3.94-2.59-.25-3.02-2.67-4.6-3.94-2.54,.3-2.47,3.22-4.6,3.94-2.93-.13-4.07-2.05-5.91-3.28-2.2,1.3-1.01,5.99-3.94,6.56-2.31-.09-2.93-1.88-5.25-1.97-1.04,1.37-1.36,3.45-1.31,5.91-2.3,.93-7.04,1.13-8.53-.66,.86-3.02,2.94-.9,5.91-1.31,1.31-1.54,.24-5.44,1.97-6.57,3.13-.29,4.76,.93,6.56,1.97,1.23-2.05,.76-5.81,3.28-6.57,3.31-.03,4.29,2.27,6.57,3.28,1.84-1.65,1.77-5.23,5.91-4.6Z"/><path class="f" d="M42.67,146.56c3.24,21.71,10.58,39.32,22.98,51.87-9.6,5.06-21.35,7.98-31.51,12.47-5.17-5.1-13.24-17.07-11.82-27.57,.48-3.55,6.89-13.58,9.19-17.73,4.2-7.57,8.36-13.45,11.16-19.04Z"/><path class="f" d="M156.91,157.72c-.17,1.92,1.49,2.02,1.31,3.94,3.16,.1,3.3-2.82,7.22-1.97,1.71,1.89,4.57,7.73,0,8.53,.45-2.64-.63-3.75-.66-5.91-2.87-.25-3.38,1.88-5.91,1.97-2.86-.42-3.2-3.36-4.6-5.25-1.68,1.39-2.9,3.22-3.94,5.25-2.53-1.19-6.05-1.4-5.91-5.25,1.91,.49,3.26,1.56,4.6,2.63,1.44-2.52,3.64-6.22,7.88-3.94Z"/><path class="f" d="M123.42,169.54c8.5,.03,20.27,2.48,22.98,10.5-4.26,.87-6.93-3.89-10.51-5.91-3.83-2.17-8.18-3.02-12.47-4.6Z"/><path class="f" d="M113.57,189.23c4.18,2.9,12.03,4.89,16.41,.66,1.61,3.16-3,5.74-3.28,9.19,.45,3.27,2.28,5.16,2.62,8.54-4.31-2.31-11.72-3.73-17.07-1.31,2.69-4.29,3.4-11.47,1.31-17.07Zm3.94,5.91c1.87,2.19-1.04,5.55,.66,7.22,1.38-2.38,5.19,1.73,6.57-.66-1.82-1.44,.09-4.68,0-6.56-2.65,1.96-5.68-1.05-7.22,0Z"/><path class="f" d="M17.72,190.55c.56-.12,.62,.25,.66,.66,1.89,8.62,5.85,15.16,9.19,22.32-9.58,2.89-18.04,6.9-27.57,9.85,5.64-11.2,12.21-21.49,17.72-32.83Z"/><path class="f" d="M156.91,199.08c-4.52,.58-6.49-1.39-5.91-5.91,3.99-5.42,11.33,1.92,5.91,5.91Z"/></g></g><g id="e"/></svg>